# xmcd CD database file
#
# Track frame offsets:
#	150
#	21044
#	32759
#	46002
#	65349
#	86215
#	107428
#	122821
#	140759
#	160811
#	173966
#
# Disc length: 2636 seconds
#
# Revision: 0
# Processed by: cddbd v1.5.2PL0 Copyright (c) Steve Scherf et al.
# Submitted via: CDex 1.51
#
DISCID=8d0a4a0b
DTITLE=Acoustic Shiver - MASTER
DYEAR=2006
DGENRE=Blues
TTITLE0=I Shall Believe
TTITLE1=Don't Know Why
TTITLE2=Eleanor Rigby
TTITLE3=Cry Me A River
TTITLE4=Why
TTITLE5=Energy
TTITLE6=Forgive Me
TTITLE7=Change The World
TTITLE8=Love Me Still
TTITLE9=Stand By Your Man
TTITLE10=Wonderful
EXTD=YEAR: 2006
EXTT0=
EXTT1=
EXTT2=
EXTT3=
EXTT4=
EXTT5=
EXTT6=
EXTT7=
EXTT8=
EXTT9=
EXTT10=
PLAYORDER=
